<svg width="16" height="16" viewBox="0 0 16 16" fill="none" xmlns="http://www.w3.org/2000/svg">
<path d="M13.3974 3.7045C12.1046 2.66557 10.0604 2.48957 9.97398 2.4821C9.83745 2.47037 9.70785 2.5477 9.65185 2.6725C9.64971 2.67677 9.53558 3.00797 9.42518 3.32744C10.9276 3.59037 11.9484 4.17384 12.0028 4.20584C12.2577 4.3541 12.343 4.68104 12.1942 4.93544C12.0956 5.10504 11.9169 5.19997 11.7334 5.19997C11.6422 5.19997 11.5505 5.17704 11.4662 5.12797C11.4513 5.1189 9.95371 4.26664 8.00118 4.26664C6.04811 4.26664 4.54998 5.11944 4.53505 5.12797C4.28065 5.2757 3.95425 5.18877 3.80651 4.93384C3.65878 4.67997 3.74465 4.3541 3.99851 4.20584C4.05291 4.17384 5.07745 3.58824 6.58411 3.32584C6.46785 3.00264 6.35051 2.67677 6.34838 2.6725C6.29238 2.54717 6.16278 2.46824 6.02625 2.4821C5.93985 2.48904 3.89558 2.66504 2.58571 3.71837C1.90091 4.3509 0.533447 8.04904 0.533447 11.2464C0.533447 11.3029 0.547847 11.3578 0.576114 11.4069C1.52065 13.0656 4.09558 13.4997 4.68225 13.5184C4.68598 13.5189 4.68918 13.5189 4.69238 13.5189C4.79585 13.5189 4.89345 13.4693 4.95478 13.3856L5.58945 12.5258C4.19745 12.1904 3.46145 11.6629 3.41718 11.6304C3.18038 11.456 3.12918 11.1221 3.30358 10.8848C3.47745 10.6485 3.81025 10.5962 4.04705 10.7696C4.06678 10.7824 5.42518 11.7333 8.00011 11.7333C10.5852 11.7333 11.9398 10.7786 11.9532 10.769C12.19 10.5973 12.5238 10.649 12.6972 10.8869C12.87 11.1237 12.8198 11.4554 12.5841 11.6293C12.5398 11.6618 11.8076 12.1882 10.4188 12.5237L11.0454 13.385C11.1068 13.4693 11.2044 13.5184 11.3078 13.5184C11.3116 13.5184 11.3148 13.5184 11.318 13.5178C11.9052 13.4992 14.4801 13.065 15.4241 11.4064C15.4524 11.3573 15.4668 11.3024 15.4668 11.2458C15.4668 8.04904 14.0993 4.3509 13.3974 3.7045ZM5.86678 10.1333C5.27745 10.1333 4.80011 9.5365 4.80011 8.79997C4.80011 8.06344 5.27745 7.46664 5.86678 7.46664C6.45611 7.46664 6.93345 8.06344 6.93345 8.79997C6.93345 9.5365 6.45611 10.1333 5.86678 10.1333ZM10.1334 10.1333C9.54411 10.1333 9.06678 9.5365 9.06678 8.79997C9.06678 8.06344 9.54411 7.46664 10.1334 7.46664C10.7228 7.46664 11.2001 8.06344 11.2001 8.79997C11.2001 9.5365 10.7228 10.1333 10.1334 10.1333Z" fill="white"/>
</svg>
