<svg width="16" height="16" viewBox="0 0 16 16" fill="none" xmlns="http://www.w3.org/2000/svg">
<path d="M8.0001 1.59998C4.4657 1.59998 1.6001 4.46558 1.6001 7.99998C1.6001 10.9989 3.66516 13.5082 6.44916 14.2026C6.4193 14.1162 6.4001 14.016 6.4001 13.8917V12.7978C6.14036 12.7978 5.70516 12.7978 5.59583 12.7978C5.15796 12.7978 4.76863 12.6096 4.57983 12.2597C4.37023 11.8709 4.33396 11.2762 3.8145 10.9125C3.66036 10.7914 3.7777 10.6533 3.9553 10.672C4.2833 10.7648 4.5553 10.9898 4.8113 11.3237C5.06623 11.6581 5.18623 11.7338 5.6625 11.7338C5.89343 11.7338 6.23903 11.7205 6.56436 11.6693C6.7393 11.225 7.0417 10.816 7.4113 10.6229C5.2801 10.4037 4.26303 9.34344 4.26303 7.90398C4.26303 7.28424 4.52703 6.68478 4.97556 6.17971C4.82836 5.67838 4.6433 4.65598 5.0321 4.26664C5.99103 4.26664 6.57076 4.88851 6.70996 5.05651C7.18783 4.89278 7.71263 4.79998 8.2641 4.79998C8.81663 4.79998 9.34356 4.89278 9.8225 5.05758C9.9601 4.89064 10.5404 4.26664 11.5014 4.26664C11.8918 4.65651 11.7046 5.68318 11.5558 6.18344C12.0017 6.68744 12.2641 7.28531 12.2641 7.90398C12.2641 9.34237 11.2486 10.4021 9.12063 10.6224C9.70623 10.928 10.1334 11.7866 10.1334 12.4336V13.8917C10.1334 13.9472 10.1212 13.9872 10.1148 14.0346C12.6086 13.1605 14.4001 10.7925 14.4001 7.99998C14.4001 4.46558 11.5345 1.59998 8.0001 1.59998Z" fill="white"/>
</svg>
