<svg width="22" height="23" viewBox="0 0 22 23" fill="none" xmlns="http://www.w3.org/2000/svg">
<g filter="url(#filter0_d_38_109)">
<path d="M4.60003 1.60001C4.51516 1.60002 4.43377 1.63373 4.37376 1.69374C4.31375 1.75375 4.28004 1.83514 4.28003 1.92001V14.08C4.28004 14.1649 4.31375 14.2463 4.37376 14.3063C4.43377 14.3663 4.51516 14.4 4.60003 14.4H5.56003C5.60243 14.4006 5.64453 14.3928 5.68388 14.377C5.72323 14.3611 5.75905 14.3377 5.78925 14.3079C5.81944 14.2781 5.84342 14.2426 5.85979 14.2035C5.87616 14.1644 5.88459 14.1224 5.88459 14.08C5.88459 14.0376 5.87616 13.9956 5.85979 13.9565C5.84342 13.9174 5.81944 13.8819 5.78925 13.8521C5.75905 13.8223 5.72323 13.7989 5.68388 13.7831C5.64453 13.7672 5.60243 13.7594 5.56003 13.76H4.92003V2.24001H5.56003C5.60243 2.24061 5.64453 2.23277 5.68388 2.21696C5.72323 2.20115 5.75905 2.17767 5.78925 2.1479C5.81944 2.11812 5.84342 2.08265 5.85979 2.04352C5.87616 2.0044 5.88459 1.96242 5.88459 1.92001C5.88459 1.8776 5.87616 1.83561 5.85979 1.79649C5.84342 1.75737 5.81944 1.72189 5.78925 1.69212C5.75905 1.66234 5.72323 1.63887 5.68388 1.62305C5.64453 1.60724 5.60243 1.59941 5.56003 1.60001H4.60003ZM16.44 1.60001C16.3976 1.59941 16.3555 1.60724 16.3162 1.62305C16.2768 1.63887 16.241 1.66234 16.2108 1.69212C16.1806 1.72189 16.1566 1.75737 16.1403 1.79649C16.1239 1.83561 16.1155 1.8776 16.1155 1.92001C16.1155 1.96242 16.1239 2.0044 16.1403 2.04352C16.1566 2.08265 16.1806 2.11812 16.2108 2.1479C16.241 2.17767 16.2768 2.20115 16.3162 2.21696C16.3555 2.23277 16.3976 2.24061 16.44 2.24001H17.08V13.76H16.44C16.3976 13.7594 16.3555 13.7672 16.3162 13.7831C16.2768 13.7989 16.241 13.8223 16.2108 13.8521C16.1806 13.8819 16.1566 13.9174 16.1403 13.9565C16.1239 13.9956 16.1155 14.0376 16.1155 14.08C16.1155 14.1224 16.1239 14.1644 16.1403 14.2035C16.1566 14.2426 16.1806 14.2781 16.2108 14.3079C16.241 14.3377 16.2768 14.3611 16.3162 14.377C16.3555 14.3928 16.3976 14.4006 16.44 14.4H17.4C17.4849 14.4 17.5663 14.3663 17.6263 14.3063C17.6863 14.2463 17.72 14.1649 17.72 14.08V1.92001C17.72 1.83514 17.6863 1.75375 17.6263 1.69374C17.5663 1.63373 17.4849 1.60002 17.4 1.60001H16.44ZM12.9438 5.60313C12.5923 5.59601 12.2379 5.6833 11.9532 5.87938C11.7704 6.00546 11.613 6.16731 11.4319 6.32251C11.1564 5.77275 10.6574 5.62586 10.0888 5.61626C9.51246 5.60634 9.05472 5.86938 8.6544 6.34938V5.76001H7.48003V10.24H8.65253C8.65253 10.24 8.65058 8.56513 8.65378 7.73313C8.65442 7.58529 8.66057 7.43433 8.69065 7.29001C8.78345 6.84553 9.2522 6.57103 9.70628 6.60751C10.1389 6.64239 10.392 6.87862 10.4132 7.39126C10.4167 7.48054 10.4132 10.24 10.4132 10.24H11.5863V7.75313C11.5882 7.56145 11.6086 7.36561 11.655 7.18001C11.7593 6.76401 12.149 6.55945 12.6063 6.61001C13.0095 6.65449 13.3165 6.87188 13.3463 7.31188V10.24H14.52V7.04001C14.52 6.72001 14.4389 6.55708 14.3419 6.36188C14.1075 5.88968 13.5296 5.615 12.9438 5.60313Z" fill="white"/>
</g>
<defs>
<filter id="filter0_d_38_109" x="-1" y="0" width="24" height="24" filterUnits="userSpaceOnUse" color-interpolation-filters="sRGB">
<feFlood flood-opacity="0" result="BackgroundImageFix"/>
<feColorMatrix in="SourceAlpha" type="matrix" values="0 0 0 0 0 0 0 0 0 0 0 0 0 0 0 0 0 0 127 0" result="hardAlpha"/>
<feOffset dy="4"/>
<feGaussianBlur stdDeviation="2"/>
<feComposite in2="hardAlpha" operator="out"/>
<feColorMatrix type="matrix" values="0 0 0 0 0 0 0 0 0 0 0 0 0 0 0 0 0 0 0.25 0"/>
<feBlend mode="normal" in2="BackgroundImageFix" result="effect1_dropShadow_38_109"/>
<feBlend mode="normal" in="SourceGraphic" in2="effect1_dropShadow_38_109" result="shape"/>
</filter>
</defs>
</svg>
